# xmcd CD database file
#
# Track frame offsets:
#	182
#	11005
#	23785
#	36075
#	48470
#	60020
#	70207
#	81220
#	92365
#	105445
#	123675
#	133665
#	147105
#	158760
#	172657
#	184657
#	197517
#	210580
#	224180
#	237660
#
# Disc length: 3386 seconds
#
# Revision: 0
# Processed by: cddbd v1.4PL0 Copyright (c) Steve Scherf et al.
# Submitted via: NeoAudio 9.9.9
#
DISCID=0f0d3814
DTITLE=Howlin' Wolf - The Very Best Of Howlin' Wolf - Disc 2
DYEAR=1995
DGENRE=Blues
TTITLE0=Wang Dang Doodle
TTITLE1=Back Door Man
TTITLE2=Spoonful
TTITLE3=Little Baby
TTITLE4=Down In The Bottom
TTITLE5=Shake For Me
TTITLE6=The Red Rooster
TTITLE7=You'll Be Mine
TTITLE8=I Ain't Superstitious
TTITLE9=Goin' Down Slow
TTITLE10=Do The Do
TTITLE11=Tail Dragger
TTITLE12=Long Green Stuff
TTITLE13=300 Pounds Of Joy
TTITLE14=Built For Comfort
TTITLE15=Killing Floor
TTITLE16=What A Woman
TTITLE17=Who's Been Talkin'
TTITLE18=Poor Boy
TTITLE19=Rockin' Daddy
EXTD=YEAR: 1995
EXTT0=
EXTT1=
EXTT2=
EXTT3=
EXTT4=
EXTT5=
EXTT6=
EXTT7=
EXTT8=
EXTT9=
EXTT10=
EXTT11=
EXTT12=
EXTT13=
EXTT14=
EXTT15=
EXTT16=
EXTT17=
EXTT18=
EXTT19=
PLAYORDER=
